<?xml version="1.0" standalone="no"?><!-- Generator: Gravit.io --><svg xmlns="http://www.w3.org/2000/svg" xmlns:xlink="http://www.w3.org/1999/xlink" style="isolation:isolate" viewBox="0 0 400 400" width="400" height="400"><defs><clipPath id="_clipPath_0ZrJ5SmUXevJVWVd1sSBKbO5b2a61yyv"><rect width="400" height="400"/></clipPath></defs><g clip-path="url(#_clipPath_0ZrJ5SmUXevJVWVd1sSBKbO5b2a61yyv)"><rect width="400" height="400" style="fill:rgb(0,0,0)"/><g id="Group"><g id="Group"><path d=" M 119.5 105 C 119.5 60.571 155.571 24.5 200 24.5 C 244.429 24.5 280.5 60.571 280.5 105 C 280.5 149.429 244.429 185.5 200 185.5 C 155.571 185.5 119.5 149.429 119.5 105 Z " fill="none" vector-effect="non-scaling-stroke" stroke-width="30" stroke="rgb(52,134,234)" stroke-linejoin="miter" stroke-linecap="square" stroke-miterlimit="3"/><path d=" M 343.551 375.5 C 343.6 374.181 343.625 372.857 343.625 371.526 L 343.625 290.289 C 343.625 232.73 296.895 186 239.336 186 L 160.664 186 C 103.105 186 56.375 232.73 56.375 290.289 L 56.375 371.526 C 56.375 372.857 56.4 374.181 56.449 375.5 L 343.551 375.5 Z " fill="none" vector-effect="non-scaling-stroke" stroke-width="30" stroke="rgb(52,134,234)" stroke-linejoin="miter" stroke-linecap="square" stroke-miterlimit="3"/><polygon points="252.021,185.847,147.979,185.5,199.7,275.777" fill="none" vector-effect="non-scaling-stroke" stroke-width="15" stroke="rgb(52,134,234)" stroke-linejoin="miter" stroke-linecap="square" stroke-miterlimit="3"/><line x1="200" y1="275.777" x2="200" y2="368" vector-effect="non-scaling-stroke" stroke-width="15" stroke="rgb(52,134,234)" stroke-linejoin="miter" stroke-linecap="square" stroke-miterlimit="3"/></g></g></g></svg>